<svg width="426" height="649" viewBox="0 0 426 649" fill="none" xmlns="http://www.w3.org/2000/svg">
<path d="M288.399 230.601C364.353 249.789 422.068 319.359 421.29 401.948L421.289 401.967V401.986C421.289 499.859 341.584 578.798 244.521 578.798C196.617 578.798 150.974 559.116 117.975 524.935L120.948 519.98C153.01 553.164 198.38 573.076 245.328 573.076C339.536 573.076 416.377 496.215 416.377 401.986C416.377 321.253 360.417 253.958 285.485 235.458L288.399 230.601Z" fill="#121626" stroke="#334365" stroke-width="8"/>
<path d="M381.026 6.6416L257 220.922L256.999 220.925L96.4072 501.829L11.9131 648.319L0.691406 642.333L89.2031 489.414L89.3457 489.166L89.2051 488.917C75.5257 464.771 68.2826 439.015 66.6729 411.643L66.6465 411.192L66.1953 411.173L65.3408 411.125C47.4465 409.928 33.5869 395.77 33.5869 377.77C33.587 359.48 48.6967 344.367 66.9814 344.367C69.4136 344.367 71.7539 344.371 74.0859 345.148L74.5615 345.308L74.7188 344.831C98.0563 273.996 164.046 223.283 242.11 221.673L242.392 221.667L242.532 221.424L370.596 0.680664L381.026 6.6416ZM234.001 234.396C164.382 238.445 106.918 286.216 85.875 349.359L85.7588 349.707L86.0547 349.922C94.8079 356.289 100.375 366.635 100.375 377.77C100.375 392.079 90.8312 404.816 78.1035 409.59L77.7666 409.716L77.7793 410.075C78.5892 432.758 85.0673 455.427 94.7754 475.657L95.1855 476.512L95.6592 475.69L234.463 235.146L234.927 234.342L234.001 234.396ZM66.1738 356.282C53.7802 356.282 44.6924 366.205 44.6924 377.77C44.6924 388.546 53.7923 397.623 64.5215 398.448L65.0312 398.487L65.0596 397.978C65.8656 383.466 67.4767 369.777 70.6943 356.903L70.8496 356.282H66.1738ZM81.8271 363.935C79.402 374.446 77.7793 384.174 77.7793 394.721V395.583L78.5273 395.155C84.3632 391.82 87.6562 385.175 87.6562 377.77C87.6562 371.998 85.9978 367.854 82.7041 363.735L82.0596 362.928L81.8271 363.935Z" fill="#334365" stroke="#334365"/>
</svg>
