<svg width="420" height="420" viewBox="0 0 420 420" fill="none" xmlns="http://www.w3.org/2000/svg">
<g clip-path="url(#clip0_46_62)">
<path d="M210 61H208.965V62.0365C208.965 74.5065 207.397 86.5996 204.479 98.1901C186.097 99.0067 168.845 104.315 153.819 113.047C154.039 111.288 154.133 109.466 154.133 107.645C154.133 81.888 133.273 61 107.551 61C81.8288 61 61.0001 81.888 61.0001 107.613C61.0001 133.338 81.8601 154.226 107.551 154.226C109.37 154.226 111.158 154.101 112.946 153.912C104.226 168.958 98.9245 186.234 98.109 204.64C86.5654 207.562 74.4572 209.132 62.0039 209.132H60.9688V210.169C60.9688 292.433 127.815 359.369 209.969 359.369C292.123 359.369 358.969 292.433 358.969 210.169C358.969 127.904 292.154 61 210 61ZM115.518 153.567C134.841 150.237 150.086 134.972 153.411 115.623C168.311 106.671 185.501 101.174 203.883 100.263C200.37 113.33 195.1 125.674 188.356 137.045C164.547 144.552 145.789 163.587 138.637 187.553C126.811 194.84 113.856 200.463 100.148 204.138C101.089 185.731 106.578 168.518 115.487 153.598L115.518 153.567ZM100.117 206.274C113.542 202.724 126.184 197.322 137.853 190.38C136.316 196.379 135.5 202.693 135.5 209.163C135.5 250.877 169.378 284.8 211.035 284.8C252.693 284.8 286.57 250.877 286.57 209.163C286.57 167.45 252.693 133.527 211.035 133.527C204.197 133.527 197.547 134.469 191.242 136.165C197.672 124.983 202.723 112.922 206.079 100.169C207.208 100.138 208.338 100.075 209.467 100.075C269.82 100.075 318.911 149.232 318.911 209.666C318.911 270.1 269.82 319.257 209.467 319.257C149.114 319.257 100.054 270.131 100.054 209.697C100.054 208.567 100.117 207.436 100.148 206.305L100.117 206.274ZM189.736 138.741C196.48 136.699 203.632 135.569 211.035 135.569C251.532 135.569 284.5 168.581 284.5 209.132C284.5 249.683 251.532 282.696 211.035 282.696C170.539 282.696 137.57 249.683 137.57 209.132C137.57 202.065 138.574 195.249 140.456 188.778C160.595 176.245 177.534 159.064 189.767 138.71L189.736 138.741ZM141.397 185.731C148.612 164.278 165.426 147.222 186.693 139.746C175.15 158.216 159.654 173.952 141.397 185.731ZM210 357.327C129.321 357.327 63.6037 291.899 63.0704 211.237C75.1473 211.142 86.8477 209.603 98.0776 206.776C98.0776 207.75 98.0149 208.692 98.0149 209.697C98.0149 271.262 148.016 321.33 209.498 321.33C270.98 321.33 320.982 271.262 320.982 209.697C320.982 148.133 270.98 98.033 209.498 98.033C208.526 98.033 207.553 98.0958 206.581 98.0958C209.373 86.8509 210.941 75.1347 211.035 63.0417C291.589 63.6071 356.961 129.381 356.961 210.169C356.961 290.956 291.056 357.296 210.031 357.296L210 357.327Z" fill="#334365"/>
</g>
<defs>
<clipPath id="clip0_46_62">
<rect width="298" height="298" fill="white" transform="translate(61 61)"/>
</clipPath>
</defs>
</svg>
