<svg width="420" height="420" viewBox="0 0 420 420" fill="none" xmlns="http://www.w3.org/2000/svg">
<g clip-path="url(#clip0_46_61)">
<path d="M210 326.262C219.147 326.262 226.563 318.837 226.563 309.678C226.563 300.518 219.147 293.093 210 293.093C200.853 293.093 193.438 300.518 193.438 309.678C193.438 318.837 200.853 326.262 210 326.262Z" fill="#334365"/>
<path d="M359 210.2C359 127.936 292.154 61 210 61C127.846 61 61 127.936 61 210.2C61 292.464 125.086 356.573 204.887 359.274C206.581 359.369 208.275 359.4 210 359.4C211.725 359.4 213.419 359.369 215.113 359.274C294.914 356.573 359 290.768 359 210.2ZM207.114 357.484C182.082 355.976 162.163 335.12 162.163 309.646C162.163 284.172 183.619 261.713 210.031 261.713C236.444 261.713 257.9 283.198 257.9 309.646C257.9 336.093 237.981 355.976 212.949 357.484C211.976 357.484 211.035 357.547 210.063 357.547C209.09 357.547 208.118 357.484 207.177 357.484H207.114ZM259.688 309.646C259.688 282.224 237.416 259.923 210.031 259.923C182.647 259.923 160.375 282.224 160.375 309.646C160.375 327.675 170.005 343.475 184.341 352.207C161.567 342.25 145.632 319.509 145.632 293.092C145.632 257.536 174.522 228.607 210.031 228.607C245.54 228.607 274.431 257.536 274.431 293.092C274.431 319.509 258.464 342.25 235.722 352.207C250.089 343.475 259.688 327.675 259.688 309.646ZM276.25 293.061C276.25 256.499 246.544 226.753 210.031 226.753C173.519 226.753 143.813 256.499 143.813 293.061C143.813 317.498 157.081 338.858 176.749 350.354C148.675 337.633 129.069 309.3 129.069 276.476C129.069 231.779 165.394 195.406 210.031 195.406C254.669 195.406 290.993 231.779 290.993 276.476C290.993 309.3 271.388 337.633 243.313 350.354C263.013 338.858 276.25 317.467 276.25 293.061ZM292.813 276.476C292.813 230.774 255.672 193.584 210.031 193.584C164.39 193.584 127.25 230.774 127.25 276.476C127.25 307.321 144.158 334.272 169.19 348.532C135.782 333.015 112.507 299.155 112.507 259.891C112.507 206.054 156.235 162.236 210.031 162.236C263.828 162.236 307.556 206.022 307.556 259.891C307.556 299.123 284.312 333.015 250.873 348.532C275.905 334.272 292.813 307.321 292.813 276.476ZM309.375 259.891C309.375 205.049 264.801 160.414 210.031 160.414C155.262 160.414 110.688 205.049 110.688 259.891C110.688 297.144 131.265 329.686 161.63 346.71C122.859 328.461 95.9758 288.978 95.9758 243.307C95.9758 180.329 147.138 129.098 210.031 129.098C272.925 129.098 324.087 180.329 324.087 243.307C324.087 288.978 297.173 328.429 258.433 346.71C288.797 329.686 309.375 297.144 309.375 259.891ZM325.938 243.307C325.938 179.323 273.96 127.276 210.063 127.276C146.165 127.276 94.1251 179.355 94.1251 243.37C94.1251 287.062 118.373 325.163 154.07 344.951C109.966 323.938 79.4133 278.863 79.4133 226.785C79.3819 154.666 137.978 95.9913 210 95.9913C282.022 95.9913 340.618 154.666 340.618 226.785C340.618 278.863 310.065 323.906 265.961 344.951C301.659 325.163 325.906 287.062 325.906 243.37L325.938 243.307ZM273.552 343.067C314.614 320.514 342.5 276.822 342.5 226.722C342.5 153.598 283.088 94.1067 210.063 94.1067C137.037 94.1067 77.5625 153.661 77.5625 226.785C77.5625 276.885 105.449 320.577 146.51 343.129C97.0423 319.352 62.8194 268.718 62.8194 210.2C62.8194 128.941 128.85 62.8218 210 62.8218C291.15 62.8218 357.181 128.941 357.181 210.2C357.181 268.718 322.958 319.352 273.49 343.129L273.552 343.067Z" fill="#334365"/>
</g>
<defs>
<clipPath id="clip0_46_61">
<rect width="298" height="298" fill="white" transform="translate(61 61)"/>
</clipPath>
</defs>
</svg>
