<svg width="605" height="205" viewBox="0 0 605 205" fill="none" xmlns="http://www.w3.org/2000/svg">
<path d="M249.5 200L362 4.99956C362 4.99956 482.5 4.54886 527.5 4.5C564.5 4.45982 599.222 36.5 599.222 77.5C599.109 89.9572 599.052 95.9206 599.222 105.663C599.36 113.522 599.222 117.562 599.222 127.5C599.222 161.5 570.5 200 527.5 200M249.5 200H527.5M249.5 200C249.5 200 436 200 527.5 200M77.5 2.5C36.0786 2.5 2.5 36.0786 2.5 77.5V127.5C2.5 168.921 36.0786 202.5 77.5 202.5H527.5C568.921 202.5 602.5 168.921 602.5 127.5V77.5C602.5 36.0786 568.921 2.5 527.5 2.5H77.5Z" stroke="black" stroke-width="5"/>
</svg>
