<svg width="1361" height="263" viewBox="0 0 1361 263" fill="none" xmlns="http://www.w3.org/2000/svg">
<path d="M101.396 131.808C101.546 130.887 101.263 129.901 100.551 129.194L80.1257 108.768C67.5943 96.2367 47.2028 96.2324 34.6671 108.764C22.1314 121.295 22.1314 141.691 34.6671 154.227C47.2028 166.762 67.59 166.758 80.1257 154.222L100.517 133.831C101.074 133.27 101.366 132.545 101.396 131.808ZM94.3114 131.491L75.8529 149.95C65.6743 160.128 49.11 160.128 38.9314 149.954C28.7529 139.775 28.7529 123.211 38.9314 113.032C49.1057 102.858 65.6743 102.858 75.8529 113.037L94.3114 131.491Z" fill="white"/>
<path d="M117.411 133.398C117.754 133.055 117.994 132.653 118.136 132.228C118.53 131.157 118.303 129.905 117.437 129.04L88.44 100.043C71.2586 82.8611 43.2814 82.8782 26.0743 100.085C8.86715 117.293 8.85 145.265 26.0314 162.451C43.2129 179.637 71.19 179.615 88.3971 162.408L117.411 133.398ZM30.3043 158.183C15.4757 143.354 15.4971 119.208 30.3514 104.354C45.2057 89.4997 69.3514 89.4825 84.18 104.307L111.073 131.2L84.1372 158.135C69.2829 172.99 45.1286 173.011 30.3043 158.183Z" fill="white"/>
<path d="M155.151 33.7339C142.62 21.2025 122.224 21.1982 109.689 33.7339C97.1529 46.2696 97.1571 66.6568 109.693 79.1925L130.119 99.6182C130.83 100.33 131.811 100.612 132.733 100.462C133.47 100.437 134.194 100.141 134.756 99.5839L155.147 79.1925C167.683 66.6611 167.683 46.2653 155.151 33.7339ZM113.961 74.9239C103.783 64.7453 103.783 48.1811 113.957 38.0025C124.136 27.8239 140.7 27.8239 150.879 38.0025C161.053 48.1768 161.053 64.7453 150.874 74.9239L132.416 93.3825L113.961 74.9239Z" fill="white"/>
<path d="M133.157 117.207C133.581 117.065 133.989 116.821 134.327 116.482L163.337 87.4725C180.544 70.2653 180.561 42.2925 163.38 25.1068C146.199 7.92104 118.226 7.93819 101.014 25.1496C83.8029 42.361 83.79 70.3296 100.971 87.5153L129.969 116.512C130.83 117.374 132.081 117.605 133.157 117.207ZM105.244 83.2425C90.4157 68.4139 90.4371 44.2682 105.291 29.4139C120.146 14.5596 144.291 14.5425 159.12 29.3668C173.949 44.1953 173.927 68.341 159.073 83.1953L132.137 110.131L105.244 83.2425Z" fill="white"/>
<path d="M183.87 107.911L163.479 128.303C162.917 128.864 162.626 129.588 162.6 130.325C162.45 131.247 162.733 132.233 163.444 132.94L183.87 153.365C196.401 165.897 216.793 165.901 229.329 153.37C241.864 140.834 241.864 120.443 229.329 107.907C216.793 95.3711 196.401 95.3797 183.87 107.911ZM225.06 149.101C214.886 159.275 198.317 159.275 188.139 149.097L169.68 130.638L188.139 112.18C198.317 102.001 214.881 102.001 225.06 112.175C235.234 122.358 235.239 138.923 225.06 149.101Z" fill="white"/>
<path d="M175.59 99.7253L146.58 128.735C146.237 129.078 145.997 129.481 145.856 129.905C145.461 130.977 145.689 132.228 146.554 133.094L175.551 162.091C192.733 179.272 220.71 179.255 237.917 162.048C255.124 144.841 255.141 116.868 237.96 99.6824C220.779 82.4967 192.801 82.5139 175.59 99.7253ZM233.644 157.775C218.794 172.625 194.644 172.647 179.816 157.822L152.923 130.93L179.859 103.994C194.709 89.1439 218.859 89.1224 233.687 103.947C248.516 118.775 248.494 142.925 233.644 157.775Z" fill="white"/>
<path d="M182.357 80.7054C192.579 59.7739 189.056 33.7725 171.69 16.4025C149.82 -5.4675 114.231 -5.4675 92.3657 16.4025C74.97 33.7982 71.46 59.8554 81.7414 80.8039C60.7929 70.5225 34.7357 74.0325 17.34 91.4282C-4.53 113.298 -4.53 148.887 17.34 170.752C34.71 188.122 60.7114 191.645 81.6429 181.42C71.4214 202.351 74.9443 228.352 92.31 245.722C114.18 267.592 149.769 267.592 171.634 245.722C189.03 228.327 192.54 202.27 182.259 181.321C203.207 191.602 229.264 188.092 246.66 170.697C268.53 148.827 268.53 113.238 246.66 91.3725C229.29 74.0068 203.289 70.4882 182.357 80.7054ZM96.63 20.6711C116.147 1.15393 147.904 1.15393 167.421 20.6711C186.651 39.9011 186.896 70.9939 168.227 90.5711C167.936 90.8496 167.623 91.0896 167.34 91.3725L131.979 126.734L96.6686 91.4239C96.5571 91.3125 96.4371 91.2225 96.3257 91.1154C77.13 71.5768 77.2243 40.0768 96.63 20.6711ZM21.6043 166.488C2.08714 146.971 2.08714 115.214 21.6043 95.6968C41.01 76.2911 72.51 76.2011 92.0529 95.3882C92.1643 95.4996 92.2543 95.6196 92.3614 95.7311L127.671 131.041L92.31 166.402C92.0229 166.69 91.7829 167.002 91.5086 167.29C71.9229 185.958 40.8343 185.718 21.6043 166.488ZM167.366 241.462C147.849 260.98 116.091 260.98 96.5743 241.462C77.3443 222.232 77.1 191.14 95.7686 171.562C96.06 171.284 96.3729 171.044 96.6557 170.761L132.017 135.4L167.327 170.71C167.439 170.821 167.559 170.911 167.67 171.018C186.861 190.552 186.771 222.052 167.366 241.462ZM242.391 166.432C222.986 185.838 191.486 185.928 171.943 166.741C171.831 166.63 171.741 166.51 171.634 166.398L136.329 131.092L171.69 95.7311C171.977 95.4439 172.217 95.1311 172.491 94.8439C192.069 76.1754 223.161 76.4196 242.391 95.6496C261.909 115.162 261.909 146.915 242.391 166.432Z" fill="white"/>
<path d="M108.844 228.395C121.376 240.927 141.771 240.931 154.307 228.395C166.843 215.86 166.839 195.472 154.303 182.937L133.877 162.511C133.166 161.8 132.184 161.517 131.263 161.667C130.526 161.692 129.801 161.988 129.24 162.545L108.849 182.937C96.3086 195.472 96.3086 215.864 108.844 228.395ZM150.03 187.21C160.209 197.388 160.209 213.952 150.034 224.131C139.856 234.31 123.291 234.31 113.113 224.131C102.939 213.957 102.939 197.388 113.117 187.21L131.576 168.751L150.03 187.21Z" fill="white"/>
<path d="M130.839 144.922C130.414 145.064 130.007 145.308 129.669 145.647L100.659 174.657C83.4514 191.864 83.4343 219.837 100.616 237.022C117.797 254.208 145.774 254.187 162.981 236.98C180.189 219.772 180.206 191.8 163.024 174.614L134.027 145.617C133.161 144.76 131.91 144.528 130.839 144.922ZM158.751 178.887C173.58 193.715 173.559 217.861 158.704 232.715C143.85 247.57 119.704 247.591 104.876 232.762C90.0471 217.934 90.0686 193.788 104.923 178.934L131.859 151.998L158.751 178.887Z" fill="white"/>
<path d="M365.11 186.1C357.737 186.1 351.087 184.817 345.16 182.25C339.28 179.683 334.427 176.02 330.6 171.26C326.82 166.453 324.417 160.76 323.39 154.18L340.89 151.52C342.383 157.493 345.44 162.113 350.06 165.38C354.727 168.647 360.093 170.28 366.16 170.28C369.753 170.28 373.137 169.72 376.31 168.6C379.483 167.48 382.05 165.847 384.01 163.7C386.017 161.553 387.02 158.917 387.02 155.79C387.02 154.39 386.787 153.107 386.32 151.94C385.853 150.727 385.153 149.653 384.22 148.72C383.333 147.787 382.167 146.947 380.72 146.2C379.32 145.407 377.687 144.73 375.82 144.17L349.78 136.47C347.54 135.817 345.113 134.953 342.5 133.88C339.933 132.76 337.483 131.243 335.15 129.33C332.863 127.37 330.973 124.897 329.48 121.91C328.033 118.877 327.31 115.143 327.31 110.71C327.31 104.223 328.943 98.7867 332.21 94.4C335.523 89.9667 339.957 86.6533 345.51 84.46C351.11 82.2667 357.317 81.1933 364.13 81.24C371.037 81.2867 377.197 82.4767 382.61 84.81C388.023 87.0967 392.55 90.4333 396.19 94.82C399.83 99.2067 402.397 104.503 403.89 110.71L385.76 113.86C385.013 110.313 383.567 107.303 381.42 104.83C379.32 102.31 376.73 100.397 373.65 99.09C370.617 97.7833 367.373 97.0833 363.92 96.99C360.56 96.9433 357.433 97.4567 354.54 98.53C351.693 99.5567 349.383 101.05 347.61 103.01C345.883 104.97 345.02 107.257 345.02 109.87C345.02 112.343 345.767 114.373 347.26 115.96C348.753 117.5 350.597 118.737 352.79 119.67C355.03 120.557 357.293 121.303 359.58 121.91L377.64 126.95C380.113 127.603 382.89 128.49 385.97 129.61C389.05 130.73 392.013 132.293 394.86 134.3C397.707 136.307 400.04 138.943 401.86 142.21C403.727 145.477 404.66 149.63 404.66 154.67C404.66 159.897 403.563 164.493 401.37 168.46C399.223 172.38 396.307 175.647 392.62 178.26C388.933 180.873 384.71 182.833 379.95 184.14C375.237 185.447 370.29 186.1 365.11 186.1ZM445.642 186.1C437.848 186.1 431.198 184.373 425.692 180.92C420.185 177.42 415.962 172.66 413.022 166.64C410.128 160.62 408.658 153.807 408.612 146.2C408.658 138.453 410.175 131.593 413.162 125.62C416.195 119.6 420.488 114.887 426.042 111.48C431.595 108.027 438.198 106.3 445.852 106.3C454.438 106.3 461.695 108.47 467.622 112.81C473.595 117.103 477.492 122.983 479.312 130.45L462.512 135C461.205 130.94 459.035 127.79 456.002 125.55C452.968 123.263 449.515 122.12 445.642 122.12C441.255 122.12 437.638 123.17 434.792 125.27C431.945 127.323 429.845 130.17 428.492 133.81C427.138 137.45 426.462 141.58 426.462 146.2C426.462 153.387 428.072 159.197 431.292 163.63C434.512 168.063 439.295 170.28 445.642 170.28C450.122 170.28 453.645 169.253 456.212 167.2C458.825 165.147 460.785 162.183 462.092 158.31L479.312 162.16C476.978 169.86 472.895 175.787 467.062 179.94C461.228 184.047 454.088 186.1 445.642 186.1ZM538.629 184V147.6C538.629 145.22 538.466 142.583 538.139 139.69C537.812 136.797 537.042 134.02 535.829 131.36C534.662 128.653 532.889 126.437 530.509 124.71C528.176 122.983 525.002 122.12 520.989 122.12C518.842 122.12 516.719 122.47 514.619 123.17C512.519 123.87 510.606 125.083 508.879 126.81C507.199 128.49 505.846 130.823 504.819 133.81C503.792 136.75 503.279 140.53 503.279 145.15L493.269 140.88C493.269 134.44 494.506 128.607 496.979 123.38C499.499 118.153 503.186 114 508.039 110.92C512.892 107.793 518.866 106.23 525.959 106.23C531.559 106.23 536.179 107.163 539.819 109.03C543.459 110.897 546.352 113.277 548.499 116.17C550.646 119.063 552.232 122.143 553.259 125.41C554.286 128.677 554.939 131.78 555.219 134.72C555.546 137.613 555.709 139.97 555.709 141.79V184H538.629ZM486.199 184V83.2H501.249V136.26H503.279V184H486.199ZM601.346 186.1C593.692 186.1 586.972 184.443 581.186 181.13C575.399 177.817 570.872 173.22 567.606 167.34C564.386 161.46 562.776 154.693 562.776 147.04C562.776 138.78 564.362 131.617 567.536 125.55C570.709 119.437 575.119 114.7 580.766 111.34C586.412 107.98 592.946 106.3 600.366 106.3C608.206 106.3 614.856 108.143 620.316 111.83C625.822 115.47 629.906 120.627 632.566 127.3C635.226 133.973 636.229 141.837 635.576 150.89H618.846V144.73C618.799 136.517 617.352 130.52 614.506 126.74C611.659 122.96 607.179 121.07 601.066 121.07C594.159 121.07 589.026 123.217 585.666 127.51C582.306 131.757 580.626 137.987 580.626 146.2C580.626 153.853 582.306 159.78 585.666 163.98C589.026 168.18 593.926 170.28 600.366 170.28C604.519 170.28 608.089 169.37 611.076 167.55C614.109 165.683 616.442 163 618.076 159.5L634.736 164.54C631.842 171.353 627.362 176.65 621.296 180.43C615.276 184.21 608.626 186.1 601.346 186.1ZM575.306 150.89V138.15H627.316V150.89H575.306ZM645.595 184V81.1H662.465V184H645.595ZM677.833 184V81.1H694.703V184H677.833ZM710.071 96.92V81.45H726.941V96.92H710.071ZM710.071 184V108.4H726.941V184H710.071ZM793.199 184V147.6C793.199 145.22 793.036 142.583 792.709 139.69C792.383 136.797 791.613 134.02 790.399 131.36C789.233 128.653 787.459 126.437 785.079 124.71C782.746 122.983 779.573 122.12 775.559 122.12C773.413 122.12 771.289 122.47 769.189 123.17C767.089 123.87 765.176 125.083 763.449 126.81C761.769 128.49 760.416 130.823 759.389 133.81C758.363 136.75 757.849 140.53 757.849 145.15L747.839 140.88C747.839 134.44 749.076 128.607 751.549 123.38C754.069 118.153 757.756 114 762.609 110.92C767.463 107.793 773.436 106.23 780.529 106.23C786.129 106.23 790.749 107.163 794.389 109.03C798.029 110.897 800.923 113.277 803.069 116.17C805.216 119.063 806.803 122.143 807.829 125.41C808.856 128.677 809.509 131.78 809.789 134.72C810.116 137.613 810.279 139.97 810.279 141.79V184H793.199ZM740.769 184V108.4H755.819V131.85H757.849V184H740.769ZM853.326 219.7C849.126 219.7 845.089 219.047 841.216 217.74C837.389 216.433 833.936 214.543 830.856 212.07C827.776 209.643 825.256 206.703 823.296 203.25L838.836 195.55C840.283 198.303 842.313 200.333 844.926 201.64C847.586 202.993 850.409 203.67 853.396 203.67C856.896 203.67 860.023 203.04 862.776 201.78C865.529 200.567 867.653 198.747 869.146 196.32C870.686 193.94 871.409 190.953 871.316 187.36V165.87H873.416V108.4H888.186V187.64C888.186 189.553 888.093 191.373 887.906 193.1C887.766 194.873 887.509 196.6 887.136 198.28C886.016 203.18 883.869 207.193 880.696 210.32C877.523 213.493 873.579 215.85 868.866 217.39C864.199 218.93 859.019 219.7 853.326 219.7ZM851.856 186.1C844.903 186.1 838.836 184.35 833.656 180.85C828.476 177.35 824.463 172.59 821.616 166.57C818.769 160.55 817.346 153.76 817.346 146.2C817.346 138.547 818.769 131.733 821.616 125.76C824.509 119.74 828.593 115.003 833.866 111.55C839.139 108.05 845.346 106.3 852.486 106.3C859.673 106.3 865.693 108.05 870.546 111.55C875.446 115.003 879.156 119.74 881.676 125.76C884.196 131.78 885.456 138.593 885.456 146.2C885.456 153.713 884.196 160.503 881.676 166.57C879.156 172.59 875.399 177.35 870.406 180.85C865.413 184.35 859.229 186.1 851.856 186.1ZM854.446 170.98C858.973 170.98 862.613 169.953 865.366 167.9C868.166 165.8 870.196 162.883 871.456 159.15C872.763 155.417 873.416 151.1 873.416 146.2C873.416 141.253 872.763 136.937 871.456 133.25C870.196 129.517 868.213 126.623 865.506 124.57C862.799 122.47 859.299 121.42 855.006 121.42C850.479 121.42 846.746 122.54 843.806 124.78C840.866 126.973 838.696 129.96 837.296 133.74C835.896 137.473 835.196 141.627 835.196 146.2C835.196 150.82 835.873 155.02 837.226 158.8C838.626 162.533 840.749 165.497 843.596 167.69C846.443 169.883 850.059 170.98 854.446 170.98ZM964.473 186.1C954.393 186.1 945.76 183.907 938.573 179.52C931.386 175.087 925.856 168.927 921.983 161.04C918.156 153.153 916.243 144.007 916.243 133.6C916.243 123.193 918.156 114.047 921.983 106.16C925.856 98.2733 931.386 92.1367 938.573 87.75C945.76 83.3167 954.393 81.1 964.473 81.1C976.093 81.1 985.776 84.0167 993.523 89.85C1001.27 95.6367 1006.71 103.453 1009.83 113.3L992.823 117.99C990.863 111.41 987.526 106.277 982.813 102.59C978.1 98.8567 971.986 96.99 964.473 96.99C957.706 96.99 952.06 98.5067 947.533 101.54C943.053 104.573 939.67 108.843 937.383 114.35C935.143 119.81 934 126.227 933.953 133.6C933.953 140.973 935.073 147.413 937.313 152.92C939.6 158.38 943.006 162.627 947.533 165.66C952.06 168.693 957.706 170.21 964.473 170.21C971.986 170.21 978.1 168.343 982.813 164.61C987.526 160.877 990.863 155.743 992.823 149.21L1009.83 153.9C1006.71 163.747 1001.27 171.587 993.523 177.42C985.776 183.207 976.093 186.1 964.473 186.1ZM1039.34 186.1C1033.88 186.1 1029.26 185.073 1025.48 183.02C1021.7 180.92 1018.83 178.143 1016.87 174.69C1014.96 171.237 1014 167.433 1014 163.28C1014 159.64 1014.61 156.373 1015.82 153.48C1017.04 150.54 1018.9 148.02 1021.42 145.92C1023.94 143.773 1027.21 142.023 1031.22 140.67C1034.26 139.69 1037.8 138.803 1041.86 138.01C1045.97 137.217 1050.4 136.493 1055.16 135.84C1059.97 135.14 1064.99 134.393 1070.21 133.6L1064.19 137.03C1064.24 131.803 1063.07 127.953 1060.69 125.48C1058.31 123.007 1054.3 121.77 1048.65 121.77C1045.25 121.77 1041.96 122.563 1038.78 124.15C1035.61 125.737 1033.39 128.467 1032.13 132.34L1016.73 127.51C1018.6 121.117 1022.15 115.983 1027.37 112.11C1032.65 108.237 1039.74 106.3 1048.65 106.3C1055.37 106.3 1061.28 107.397 1066.36 109.59C1071.5 111.783 1075.3 115.377 1077.77 120.37C1079.13 123.03 1079.94 125.76 1080.22 128.56C1080.5 131.313 1080.64 134.323 1080.64 137.59V184H1065.87V167.62L1068.32 170.28C1064.92 175.74 1060.93 179.753 1056.35 182.32C1051.83 184.84 1046.16 186.1 1039.34 186.1ZM1042.7 172.66C1046.53 172.66 1049.8 171.983 1052.5 170.63C1055.21 169.277 1057.36 167.62 1058.94 165.66C1060.58 163.7 1061.67 161.857 1062.23 160.13C1063.12 157.983 1063.61 155.533 1063.7 152.78C1063.84 149.98 1063.91 147.717 1063.91 145.99L1069.09 147.53C1064.01 148.323 1059.64 149.023 1056 149.63C1052.36 150.237 1049.24 150.82 1046.62 151.38C1044.01 151.893 1041.7 152.477 1039.69 153.13C1037.73 153.83 1036.08 154.647 1034.72 155.58C1033.37 156.513 1032.32 157.587 1031.57 158.8C1030.87 160.013 1030.52 161.437 1030.52 163.07C1030.52 164.937 1030.99 166.593 1031.92 168.04C1032.86 169.44 1034.21 170.56 1035.98 171.4C1037.8 172.24 1040.04 172.66 1042.7 172.66ZM1128.2 186.1C1120.82 186.1 1114.64 184.35 1109.65 180.85C1104.65 177.35 1100.9 172.59 1098.38 166.57C1095.86 160.503 1094.6 153.713 1094.6 146.2C1094.6 138.593 1095.86 131.78 1098.38 125.76C1100.9 119.74 1104.58 115.003 1109.44 111.55C1114.34 108.05 1120.38 106.3 1127.57 106.3C1134.71 106.3 1140.89 108.05 1146.12 111.55C1151.39 115.003 1155.47 119.74 1158.37 125.76C1161.26 131.733 1162.71 138.547 1162.71 146.2C1162.71 153.76 1161.28 160.55 1158.44 166.57C1155.59 172.59 1151.58 177.35 1146.4 180.85C1141.22 184.35 1135.15 186.1 1128.2 186.1ZM1091.73 217.6V108.4H1106.64V161.46H1108.74V217.6H1091.73ZM1125.61 170.98C1129.99 170.98 1133.61 169.883 1136.46 167.69C1139.3 165.497 1141.4 162.533 1142.76 158.8C1144.16 155.02 1144.86 150.82 1144.86 146.2C1144.86 141.627 1144.16 137.473 1142.76 133.74C1141.36 129.96 1139.19 126.973 1136.25 124.78C1133.31 122.54 1129.57 121.42 1125.05 121.42C1120.75 121.42 1117.25 122.47 1114.55 124.57C1111.84 126.623 1109.83 129.517 1108.53 133.25C1107.27 136.937 1106.64 141.253 1106.64 146.2C1106.64 151.1 1107.27 155.417 1108.53 159.15C1109.83 162.883 1111.86 165.8 1114.62 167.9C1117.42 169.953 1121.08 170.98 1125.61 170.98ZM1172.54 96.92V81.45H1189.41V96.92H1172.54ZM1172.54 184V108.4H1189.41V184H1172.54ZM1247.68 184C1242.69 184.933 1237.79 185.33 1232.98 185.19C1228.22 185.097 1223.95 184.233 1220.17 182.6C1216.39 180.92 1213.52 178.283 1211.56 174.69C1209.84 171.423 1208.93 168.087 1208.83 164.68C1208.74 161.273 1208.69 157.423 1208.69 153.13V87.4H1225.49V152.15C1225.49 155.183 1225.52 157.843 1225.56 160.13C1225.66 162.417 1226.15 164.283 1227.03 165.73C1228.71 168.53 1231.4 170.093 1235.08 170.42C1238.77 170.747 1242.97 170.56 1247.68 169.86V184ZM1194.97 121.63V108.4H1247.68V121.63H1194.97ZM1278.08 186.1C1272.62 186.1 1268 185.073 1264.22 183.02C1260.44 180.92 1257.57 178.143 1255.61 174.69C1253.7 171.237 1252.74 167.433 1252.74 163.28C1252.74 159.64 1253.35 156.373 1254.56 153.48C1255.77 150.54 1257.64 148.02 1260.16 145.92C1262.68 143.773 1265.95 142.023 1269.96 140.67C1272.99 139.69 1276.54 138.803 1280.6 138.01C1284.71 137.217 1289.14 136.493 1293.9 135.84C1298.71 135.14 1303.72 134.393 1308.95 133.6L1302.93 137.03C1302.98 131.803 1301.81 127.953 1299.43 125.48C1297.05 123.007 1293.04 121.77 1287.39 121.77C1283.98 121.77 1280.69 122.563 1277.52 124.15C1274.35 125.737 1272.13 128.467 1270.87 132.34L1255.47 127.51C1257.34 121.117 1260.88 115.983 1266.11 112.11C1271.38 108.237 1278.48 106.3 1287.39 106.3C1294.11 106.3 1300.01 107.397 1305.1 109.59C1310.23 111.783 1314.04 115.377 1316.51 120.37C1317.86 123.03 1318.68 125.76 1318.96 128.56C1319.24 131.313 1319.38 134.323 1319.38 137.59V184H1304.61V167.62L1307.06 170.28C1303.65 175.74 1299.66 179.753 1295.09 182.32C1290.56 184.84 1284.89 186.1 1278.08 186.1ZM1281.44 172.66C1285.27 172.66 1288.53 171.983 1291.24 170.63C1293.95 169.277 1296.09 167.62 1297.68 165.66C1299.31 163.7 1300.41 161.857 1300.97 160.13C1301.86 157.983 1302.35 155.533 1302.44 152.78C1302.58 149.98 1302.65 147.717 1302.65 145.99L1307.83 147.53C1302.74 148.323 1298.38 149.023 1294.74 149.63C1291.1 150.237 1287.97 150.82 1285.36 151.38C1282.75 151.893 1280.44 152.477 1278.43 153.13C1276.47 153.83 1274.81 154.647 1273.46 155.58C1272.11 156.513 1271.06 157.587 1270.31 158.8C1269.61 160.013 1269.26 161.437 1269.26 163.07C1269.26 164.937 1269.73 166.593 1270.66 168.04C1271.59 169.44 1272.95 170.56 1274.72 171.4C1276.54 172.24 1278.78 172.66 1281.44 172.66ZM1332 184V81.1H1348.87V184H1332Z" fill="white"/>
</svg>
