<svg width="1148" height="304" viewBox="0 0 1148 304" fill="none" xmlns="http://www.w3.org/2000/svg">
<path fill-rule="evenodd" clip-rule="evenodd" d="M167.256 122.59L192.371 122.538C209.499 122.503 225.938 129.271 238.062 141.349C250.186 153.428 257 169.825 257 186.926C257 192.425 257 198.029 257 203.517C257 238.637 228.808 267.278 193.635 267.894C127.638 269.05 16.3442 270.998 16.3442 270.998C9.84849 271.111 3.92338 267.307 1.33283 261.361C-1.25771 255.413 -0.00487518 248.491 4.50739 243.827L90.7012 154.702L64.4294 154.675C28.8343 154.638 0.000923157 125.822 0.000923157 90.2886C0.000923157 85.0199 0.000923157 79.6569 0.000923157 74.3863C0.000923157 57.3103 6.79534 40.9328 18.8904 28.8579C30.9854 16.7831 47.3903 10 64.4949 10C130.593 10 240.938 10 240.938 10C247.428 10 253.282 13.9005 255.772 19.885C258.26 25.8695 256.898 32.7623 252.316 37.3536L167.256 122.59ZM202.261 42.07H64.4949C55.9099 42.0719 47.6756 45.476 41.6059 51.5355C35.5362 57.597 32.1246 65.8156 32.1246 74.3863V90.2886C32.1246 108.123 46.5981 122.586 64.4622 122.605L121.836 122.663L202.261 42.07ZM192.438 154.609L135.332 154.727L54.5529 238.252L193.072 235.827C210.726 235.52 224.874 221.143 224.874 203.517V186.926C224.874 178.344 221.455 170.113 215.37 164.05C209.285 157.989 201.035 154.592 192.438 154.609Z" fill="#334365"/>
<path d="M367.52 119.84C352.587 119.84 340.64 116.533 331.68 109.92C322.72 103.2 317.493 93.76 316 81.6H339.68C340.427 87.7867 343.413 92.6933 348.64 96.32C353.867 99.84 360.533 101.6 368.64 101.6C375.253 101.6 380.32 100.427 383.84 98.08C387.467 95.7333 389.28 92.5867 389.28 88.64C389.28 84.9067 388.213 81.92 386.08 79.68C383.947 77.3333 380.267 75.4667 375.04 74.08L353.6 68.16C342.613 65.0667 334.56 60.8533 329.44 55.52C324.427 50.08 321.92 43.3067 321.92 35.2C321.92 28.2667 323.68 22.2933 327.2 17.28C330.827 12.16 335.893 8.26667 342.4 5.59999C348.907 2.82667 356.533 1.44 365.28 1.44C378.72 1.44 389.44 4.64 397.44 11.04C405.44 17.3333 409.973 25.7067 411.04 36.16H387.36C386.293 30.5067 383.68 26.3467 379.52 23.68C375.467 21.0133 370.24 19.68 363.84 19.68C358.293 19.68 353.867 20.7467 350.56 22.88C347.253 25.0133 345.6 27.8933 345.6 31.52C345.6 34.2933 346.507 36.8533 348.32 39.2C350.133 41.44 353.92 43.36 359.68 44.96L381.12 50.88C392.427 53.9733 400.533 58.24 405.44 63.68C410.453 69.0133 412.96 75.7867 412.96 84C412.96 95.52 408.96 104.373 400.96 110.56C392.96 116.747 381.813 119.84 367.52 119.84Z" fill="#334365"/>
<path d="M459.583 120C451.049 120 443.529 118.187 437.023 114.56C430.516 110.933 425.396 105.92 421.663 99.52C418.036 93.12 416.223 85.8133 416.223 77.6C416.223 69.3867 418.036 62.08 421.663 55.68C425.396 49.28 430.516 44.2667 437.023 40.64C443.529 37.0133 451.049 35.2 459.583 35.2C466.729 35.2 473.129 36.5333 478.783 39.2C484.543 41.76 489.236 45.3333 492.863 49.92C496.596 54.5067 498.996 59.8933 500.063 66.08H476.863C475.689 62.1333 473.556 59.1467 470.463 57.12C467.476 55.0933 463.956 54.08 459.903 54.08C456.063 54.08 452.703 55.04 449.823 56.96C447.049 58.88 444.916 61.6 443.423 65.12C441.929 68.64 441.183 72.8 441.183 77.6C441.183 82.4 441.929 86.56 443.423 90.08C444.916 93.6 447.049 96.32 449.823 98.24C452.703 100.16 456.063 101.12 459.903 101.12C463.956 101.12 467.476 100.107 470.463 98.08C473.556 96.0533 475.689 93.0667 476.863 89.12H500.063C498.996 95.3067 496.596 100.693 492.863 105.28C489.236 109.867 484.543 113.493 478.783 116.16C473.129 118.72 466.729 120 459.583 120Z" fill="#334365"/>
<path d="M509.266 118.4V3.2H533.266V118.4H509.266ZM566.066 118.4V67.84C566.066 63.36 564.893 60 562.546 57.76C560.306 55.52 557 54.4 552.626 54.4C548.893 54.4 545.533 55.2533 542.546 56.96C539.666 58.6667 537.373 61.0133 535.666 64C534.066 66.9867 533.266 70.5067 533.266 74.56L531.186 54.88C533.853 48.9067 537.746 44.16 542.866 40.64C548.093 37.0133 554.493 35.2 562.066 35.2C571.133 35.2 578.066 37.76 582.866 42.88C587.666 47.8933 590.066 54.6667 590.066 63.2V118.4H566.066Z" fill="#334365"/>
<path d="M643.529 120C634.462 120 626.569 118.24 619.849 114.72C613.129 111.093 607.902 106.08 604.169 99.68C600.542 93.28 598.729 85.92 598.729 77.6C598.729 69.1733 600.542 61.8133 604.169 55.52C607.902 49.12 613.075 44.16 619.689 40.64C626.302 37.0133 633.982 35.2 642.729 35.2C651.155 35.2 658.462 36.9067 664.649 40.32C670.835 43.7333 675.635 48.48 679.049 54.56C682.462 60.64 684.169 67.7867 684.169 76C684.169 77.7067 684.115 79.3067 684.009 80.8C683.902 82.1867 683.742 83.52 683.529 84.8H612.809V68.96H664.169L660.009 71.84C660.009 65.2267 658.409 60.3733 655.209 57.28C652.115 54.08 647.849 52.48 642.409 52.48C636.115 52.48 631.209 54.6133 627.689 58.88C624.275 63.1467 622.569 69.5467 622.569 78.08C622.569 86.4 624.275 92.5867 627.689 96.64C631.209 100.693 636.435 102.72 643.369 102.72C647.209 102.72 650.515 102.08 653.289 100.8C656.062 99.52 658.142 97.44 659.529 94.56H682.089C679.422 102.453 674.835 108.693 668.329 113.28C661.929 117.76 653.662 120 643.529 120Z" fill="#334365"/>
<path d="M693.804 118.4V3.2L717.804 16.3999V118.4H693.804Z" fill="#334365"/>
<path d="M733.729 118.4V3.2L757.729 16.3999V118.4H733.729Z" fill="#334365"/>
<path d="M773.654 118.4V36.8H797.654V118.4H773.654ZM772.854 25.92V0H798.454V25.92H772.854Z" fill="#334365"/>
<path d="M813.579 118.4V36.8H837.099V56H837.579V118.4H813.579ZM870.379 118.4V67.84C870.379 63.36 869.205 60 866.859 57.76C864.619 55.52 861.312 54.4 856.939 54.4C853.205 54.4 849.845 55.2533 846.859 56.96C843.979 58.6667 841.685 61.0133 839.979 64C838.379 66.9867 837.579 70.5067 837.579 74.56L835.499 54.88C838.165 48.9067 842.059 44.16 847.179 40.64C852.405 37.0133 858.805 35.2 866.379 35.2C875.445 35.2 882.379 37.76 887.179 42.88C891.979 47.8933 894.379 54.6667 894.379 63.2V118.4H870.379Z" fill="#334365"/>
<path d="M946.729 152.8C935.422 152.8 926.195 150.4 919.049 145.6C912.009 140.8 907.849 134.293 906.569 126.08H929.289C930.142 128.107 931.955 129.653 934.729 130.72C937.609 131.787 941.235 132.32 945.609 132.32C952.862 132.32 958.142 130.933 961.449 128.16C964.755 125.387 966.409 121.067 966.409 115.2V97.44L967.689 97.76C966.622 103.733 963.529 108.48 958.409 112C953.289 115.413 946.942 117.12 939.369 117.12C932.115 117.12 925.769 115.467 920.329 112.16C914.995 108.747 910.835 104 907.849 97.92C904.862 91.84 903.369 84.6933 903.369 76.48C903.369 68.16 904.915 60.9067 908.009 54.72C911.102 48.5333 915.422 43.7333 920.969 40.32C926.622 36.9067 933.182 35.2 940.649 35.2C948.329 35.2 954.569 37.0133 959.369 40.64C964.275 44.2667 967.155 49.2267 968.009 55.52L966.889 55.68V36.8H990.409V114.88C990.409 126.613 986.515 135.84 978.729 142.56C970.942 149.387 960.275 152.8 946.729 152.8ZM947.689 98.72C953.342 98.72 957.929 96.8 961.449 92.96C964.969 89.0133 966.729 83.4133 966.729 76.16C966.729 68.9067 964.915 63.36 961.289 59.52C957.769 55.5733 953.129 53.6 947.369 53.6C941.822 53.6 937.235 55.5733 933.609 59.52C930.089 63.4667 928.329 69.0667 928.329 76.32C928.329 83.5733 930.089 89.12 933.609 92.96C937.235 96.8 941.929 98.72 947.689 98.72Z" fill="#334365"/>
<path d="M1044.8 120C1035.73 120 1027.84 118.24 1021.12 114.72C1014.4 111.093 1009.17 106.08 1005.44 99.68C1001.81 93.28 999.998 85.92 999.998 77.6C999.998 69.1733 1001.81 61.8133 1005.44 55.52C1009.17 49.12 1014.34 44.16 1020.96 40.64C1027.57 37.0133 1035.25 35.2 1044 35.2C1052.42 35.2 1059.73 36.9067 1065.92 40.32C1072.1 43.7333 1076.9 48.48 1080.32 54.56C1083.73 60.64 1085.44 67.7867 1085.44 76C1085.44 77.7067 1085.38 79.3067 1085.28 80.8C1085.17 82.1867 1085.01 83.52 1084.8 84.8H1014.08V68.96H1065.44L1061.28 71.84C1061.28 65.2267 1059.68 60.3733 1056.48 57.28C1053.38 54.08 1049.12 52.48 1043.68 52.48C1037.38 52.48 1032.48 54.6133 1028.96 58.88C1025.54 63.1467 1023.84 69.5467 1023.84 78.08C1023.84 86.4 1025.54 92.5867 1028.96 96.64C1032.48 100.693 1037.7 102.72 1044.64 102.72C1048.48 102.72 1051.78 102.08 1054.56 100.8C1057.33 99.52 1059.41 97.44 1060.8 94.56H1083.36C1080.69 102.453 1076.1 108.693 1069.6 113.28C1063.2 117.76 1054.93 120 1044.8 120Z" fill="#334365"/>
<path d="M1095.07 118.4V36.8H1118.59V56H1119.07V118.4H1095.07ZM1119.07 75.84L1116.99 56.48C1118.91 49.5467 1122.06 44.2667 1126.43 40.64C1130.81 37.0133 1136.25 35.2 1142.75 35.2C1144.78 35.2 1146.27 35.4133 1147.23 35.84V58.24C1146.7 58.0267 1145.95 57.92 1144.99 57.92C1144.03 57.8133 1142.86 57.76 1141.47 57.76C1133.79 57.76 1128.14 59.1467 1124.51 61.92C1120.89 64.5867 1119.07 69.2267 1119.07 75.84Z" fill="#334365"/>
<path d="M374.72 272C366.4 272 358.72 270.56 351.68 267.68C344.64 264.693 338.507 260.533 333.28 255.2C328.16 249.867 324.16 243.573 321.28 236.32C318.4 228.96 316.96 220.96 316.96 212.32C316.96 203.68 318.347 195.787 321.12 188.64C324 181.493 328 175.307 333.12 170.08C338.347 164.747 344.48 160.693 351.52 157.92C358.56 155.04 366.293 153.6 374.72 153.6C384.213 153.6 392.747 155.467 400.32 159.2C408 162.827 414.24 168 419.04 174.72C423.947 181.333 426.933 189.12 428 198.08H404C402.613 189.867 399.253 183.68 393.92 179.52C388.587 175.253 382.24 173.12 374.88 173.12C368.373 173.12 362.613 174.667 357.6 177.76C352.693 180.853 348.853 185.333 346.08 191.2C343.307 196.96 341.92 203.947 341.92 212.16C341.92 220.48 343.307 227.68 346.08 233.76C348.96 239.733 352.907 244.373 357.92 247.68C362.933 250.88 368.693 252.48 375.2 252.48C382.133 252.48 388.267 250.4 393.6 246.24C398.933 242.08 402.4 235.893 404 227.68H428.32C426.933 236.64 423.787 244.48 418.88 251.2C413.973 257.813 407.733 262.933 400.16 266.56C392.587 270.187 384.107 272 374.72 272Z" fill="#334365"/>
<path d="M486.639 270.4C485.999 268.053 485.519 265.547 485.199 262.88C484.985 260.213 484.879 257.12 484.879 253.6H484.239V215.04C484.239 211.733 483.119 209.173 480.879 207.36C478.745 205.44 475.545 204.48 471.279 204.48C467.225 204.48 463.972 205.173 461.519 206.56C459.172 207.947 457.625 209.973 456.879 212.64H433.999C435.065 205.28 438.852 199.2 445.359 194.4C451.865 189.6 460.772 187.2 472.079 187.2C483.812 187.2 492.772 189.813 498.959 195.04C505.145 200.267 508.239 207.787 508.239 217.6V253.6C508.239 256.267 508.399 258.987 508.719 261.76C509.145 264.427 509.785 267.307 510.639 270.4H486.639ZM458.159 272C450.052 272 443.599 269.973 438.799 265.92C433.999 261.76 431.599 256.267 431.599 249.44C431.599 241.867 434.425 235.787 440.079 231.2C445.839 226.507 453.839 223.467 464.079 222.08L487.919 218.72V232.64L468.079 235.68C463.812 236.32 460.665 237.493 458.639 239.2C456.612 240.907 455.599 243.253 455.599 246.24C455.599 248.907 456.559 250.933 458.479 252.32C460.399 253.707 462.959 254.4 466.159 254.4C471.172 254.4 475.439 253.067 478.959 250.4C482.479 247.627 484.239 244.427 484.239 240.8L486.479 253.6C484.132 259.68 480.559 264.267 475.759 267.36C470.959 270.453 465.092 272 458.159 272Z" fill="#334365"/>
<path d="M573.245 272C565.458 272 559.218 270.187 554.525 266.56C549.832 262.933 547.058 257.973 546.205 251.68L547.485 251.52V303.2H523.485V188.8H547.005V206.88L545.565 206.56C546.738 200.587 549.938 195.893 555.165 192.48C560.392 188.96 566.845 187.2 574.525 187.2C581.885 187.2 588.232 188.96 593.565 192.48C599.005 195.893 603.165 200.747 606.045 207.04C609.032 213.333 610.525 220.747 610.525 229.28C610.525 237.92 608.978 245.44 605.885 251.84C602.792 258.24 598.472 263.2 592.925 266.72C587.378 270.24 580.818 272 573.245 272ZM566.525 252.8C572.178 252.8 576.765 250.773 580.285 246.72C583.805 242.667 585.565 236.907 585.565 229.44C585.565 221.973 583.752 216.267 580.125 212.32C576.605 208.373 571.965 206.4 566.205 206.4C560.658 206.4 556.072 208.427 552.445 212.48C548.925 216.427 547.165 222.133 547.165 229.6C547.165 237.067 548.925 242.827 552.445 246.88C556.072 250.827 560.765 252.8 566.525 252.8Z" fill="#334365"/>
<path d="M620.129 270.4V188.8H644.129V270.4H620.129ZM619.329 177.92V152H644.929V177.92H619.329Z" fill="#334365"/>
<path d="M697.524 272.16C687.07 272.16 679.284 269.653 674.164 264.64C669.15 259.52 666.644 251.787 666.644 241.44V170.56L690.644 161.6V242.24C690.644 245.867 691.657 248.587 693.684 250.4C695.71 252.213 698.857 253.12 703.124 253.12C704.724 253.12 706.217 252.96 707.604 252.64C708.99 252.32 710.377 251.947 711.764 251.52V269.76C710.377 270.507 708.404 271.093 705.844 271.52C703.39 271.947 700.617 272.16 697.524 272.16ZM651.444 207.04V188.8H711.764V207.04H651.444Z" fill="#334365"/>
<path d="M772.745 270.4C772.105 268.053 771.625 265.547 771.305 262.88C771.092 260.213 770.985 257.12 770.985 253.6H770.345V215.04C770.345 211.733 769.225 209.173 766.985 207.36C764.852 205.44 761.652 204.48 757.385 204.48C753.332 204.48 750.078 205.173 747.625 206.56C745.278 207.947 743.732 209.973 742.985 212.64H720.105C721.172 205.28 724.958 199.2 731.465 194.4C737.972 189.6 746.878 187.2 758.185 187.2C769.918 187.2 778.878 189.813 785.065 195.04C791.252 200.267 794.345 207.787 794.345 217.6V253.6C794.345 256.267 794.505 258.987 794.825 261.76C795.252 264.427 795.892 267.307 796.745 270.4H772.745ZM744.265 272C736.158 272 729.705 269.973 724.905 265.92C720.105 261.76 717.705 256.267 717.705 249.44C717.705 241.867 720.532 235.787 726.185 231.2C731.945 226.507 739.945 223.467 750.185 222.08L774.025 218.72V232.64L754.185 235.68C749.918 236.32 746.772 237.493 744.745 239.2C742.718 240.907 741.705 243.253 741.705 246.24C741.705 248.907 742.665 250.933 744.585 252.32C746.505 253.707 749.065 254.4 752.265 254.4C757.278 254.4 761.545 253.067 765.065 250.4C768.585 247.627 770.345 244.427 770.345 240.8L772.585 253.6C770.238 259.68 766.665 264.267 761.865 267.36C757.065 270.453 751.198 272 744.265 272Z" fill="#334365"/>
<path d="M809.591 270.4V155.2L833.591 164.9V270.4H809.591Z" fill="#334365"/>
</svg>
