<svg width="420" height="420" viewBox="0 0 420 420" fill="none" xmlns="http://www.w3.org/2000/svg">
<g clip-path="url(#clip0_46_64)">
<path fill-rule="evenodd" clip-rule="evenodd" d="M96.6066 115.792C88.533 112.468 84 108.738 84 104.8C84 90.924 140.172 79.6738 209.455 79.6738C278.737 79.6738 334.909 90.924 334.909 104.8C334.909 108.738 330.376 112.468 322.302 115.792C330.376 119.117 334.909 122.847 334.909 126.785C334.909 131.361 328.796 135.655 318.125 139.348C328.795 143.041 334.909 147.335 334.909 151.911C334.909 155.849 330.376 159.579 322.302 162.903C330.376 166.228 334.909 169.958 334.909 173.896C334.909 178.472 328.796 182.766 318.125 186.459C328.795 190.152 334.909 194.446 334.909 199.022C334.909 202.96 330.376 206.69 322.302 210.015C330.376 213.339 334.909 217.069 334.909 221.007C334.909 225.583 328.796 229.877 318.125 233.57C328.795 237.263 334.909 241.557 334.909 246.133C334.909 250.071 330.376 253.801 322.302 257.126C330.376 260.45 334.909 264.18 334.909 268.118C334.909 272.694 328.796 276.988 318.125 280.681C328.795 284.374 334.909 288.668 334.909 293.244C334.909 297.182 330.376 300.912 322.302 304.237C330.376 307.562 334.909 311.291 334.909 315.229C334.909 329.105 278.737 340.355 209.455 340.355C140.172 340.355 84 329.105 84 315.229C84 311.291 88.533 307.562 96.6066 304.237C88.533 300.912 84 297.182 84 293.244C84 288.668 90.1134 284.374 100.785 280.681C90.1137 276.988 84 272.694 84 268.118C84 264.18 88.533 260.45 96.6066 257.126C88.533 253.801 84 250.071 84 246.133C84 241.557 90.1134 237.263 100.785 233.57C90.1137 229.877 84 225.583 84 221.007C84 217.069 88.533 213.339 96.6066 210.015C88.533 206.69 84 202.96 84 199.022C84 194.446 90.1134 190.152 100.785 186.459C90.1137 182.766 84 178.472 84 173.896C84 169.958 88.533 166.228 96.6066 162.903C88.533 159.579 84 155.849 84 151.911C84 147.335 90.1134 143.041 100.785 139.348C90.1137 135.655 84 131.361 84 126.785C84 122.847 88.533 119.117 96.6066 115.792ZM331.771 104.8C331.771 105.389 331.489 106.321 330.166 107.622C328.843 108.91 326.723 110.308 323.71 111.744C321.994 112.553 320.034 113.351 317.853 114.124C296.095 106.665 255.703 101.659 209.454 101.659C163.206 101.659 122.812 106.665 101.055 114.124C98.8747 113.351 96.9145 112.553 95.1993 111.744C92.1854 110.308 90.066 108.91 88.7427 107.622C87.4196 106.321 87.1378 105.389 87.1378 104.8C87.1378 104.211 87.4196 103.278 88.7427 101.978C90.0659 100.69 92.1855 99.2912 95.1993 97.8558C101.215 95.0095 110.109 92.3595 121.356 90.1145C143.813 85.6119 174.956 82.8148 209.456 82.8148C243.956 82.8148 275.1 85.612 297.557 90.1145C308.803 92.3596 317.698 95.0096 323.713 97.8558C326.727 99.2912 328.847 100.69 330.17 101.978C331.493 103.278 331.775 104.211 331.775 104.8H331.771ZM106.16 115.792C110.583 114.48 115.667 113.24 121.352 112.099C143.809 107.597 174.952 104.8 209.452 104.8C243.952 104.8 275.096 107.597 297.553 112.099C303.237 113.24 308.322 114.48 312.745 115.792C308.322 117.105 303.238 118.344 297.553 119.485C275.096 123.988 243.952 126.785 209.452 126.785C174.952 126.785 143.808 123.988 121.352 119.485C115.667 118.344 110.583 117.105 106.16 115.792ZM317.852 117.461C303.334 122.43 280.523 126.319 253.202 128.355C277.632 130.171 298.447 133.471 312.965 137.716C317.18 136.441 320.782 135.103 323.71 133.729C326.724 132.294 328.843 130.895 330.167 129.607C331.49 128.307 331.772 127.374 331.772 126.785C331.772 126.196 331.49 125.264 330.167 123.964C328.843 122.675 326.724 121.277 323.71 119.841C321.995 119.032 320.033 118.234 317.852 117.461ZM165.701 128.355C141.271 130.171 120.456 133.471 105.937 137.716C101.723 136.441 98.1208 135.103 95.1927 133.729C92.1789 132.294 90.0595 130.895 88.7362 129.607C87.4131 128.307 87.1313 127.374 87.1313 126.785C87.1313 126.196 87.4131 125.264 88.7362 123.964C90.0594 122.675 92.179 121.277 95.1927 119.841C96.908 119.032 98.8682 118.234 101.049 117.461C115.567 122.43 138.38 126.319 165.701 128.355ZM297.55 137.226C300.907 137.9 304.068 138.612 306.996 139.348C304.068 140.084 300.907 140.796 297.55 141.47C275.093 145.973 243.95 148.77 209.45 148.77C174.95 148.77 143.806 145.973 121.349 141.47C117.993 140.796 114.832 140.084 111.904 139.348C114.832 138.612 117.993 137.9 121.349 137.226C143.806 132.723 174.95 129.926 209.45 129.926C243.95 129.926 275.094 132.723 297.55 137.226ZM312.963 140.98C298.445 145.225 277.628 148.525 253.199 150.341C280.52 152.377 303.331 156.266 317.849 161.235C320.03 160.462 321.99 159.665 323.705 158.855C326.719 157.42 328.839 156.021 330.162 154.733C331.485 153.432 331.767 152.5 331.767 151.911C331.767 151.322 331.485 150.39 330.162 149.089C328.839 147.801 326.719 146.403 323.705 144.967C320.777 143.593 317.177 142.256 312.963 140.98ZM101.051 161.235C115.569 156.266 138.38 152.377 165.701 150.34C141.272 148.525 120.456 145.224 105.938 140.979C101.723 142.255 98.1212 143.593 95.1931 144.967C92.1792 146.402 90.0598 147.801 88.7365 149.089C87.4134 150.389 87.1316 151.322 87.1316 151.911C87.1316 152.499 87.4134 153.432 88.7365 154.732C90.0597 156.02 92.1793 157.419 95.1931 158.855C96.9083 159.664 98.8704 160.462 101.051 161.235ZM106.16 162.903C110.583 161.591 115.667 160.352 121.352 159.211C143.809 154.708 174.952 151.911 209.452 151.911C243.952 151.911 275.096 154.708 297.553 159.211C303.237 160.352 308.322 161.591 312.745 162.903C308.322 164.216 303.238 165.455 297.553 166.596C275.096 171.099 243.952 173.896 209.452 173.896C174.952 173.896 143.808 171.099 121.352 166.596C115.667 165.455 110.583 164.216 106.16 162.903ZM317.852 164.572C303.334 169.541 280.523 173.43 253.202 175.467C277.632 177.282 298.447 180.583 312.965 184.828C317.18 183.552 320.782 182.214 323.71 180.84C326.724 179.405 328.843 178.006 330.167 176.718C331.49 175.418 331.772 174.485 331.772 173.896C331.772 173.308 331.49 172.375 330.167 171.075C328.843 169.786 326.724 168.388 323.71 166.952C321.995 166.143 320.033 165.345 317.852 164.572ZM165.701 175.467C141.271 177.282 120.456 180.583 105.937 184.828C101.723 183.552 98.1208 182.214 95.1927 180.84C92.1789 179.405 90.0595 178.006 88.7362 176.718C87.4131 175.418 87.1313 174.485 87.1313 173.896C87.1313 173.308 87.4131 172.375 88.7362 171.075C90.0594 169.786 92.179 168.388 95.1927 166.952C96.908 166.143 98.8682 165.345 101.049 164.572C115.567 169.541 138.38 173.43 165.701 175.467ZM297.55 184.337C300.907 185.011 304.068 185.723 306.996 186.459C304.068 187.195 300.907 187.907 297.55 188.582C275.093 193.084 243.95 195.881 209.45 195.881C174.95 195.881 143.806 193.084 121.349 188.582C117.993 187.907 114.832 187.195 111.904 186.459C114.832 185.723 117.993 185.011 121.349 184.337C143.806 179.834 174.95 177.037 209.45 177.037C243.95 177.037 275.094 179.834 297.55 184.337ZM312.963 188.091C298.445 192.336 277.628 195.636 253.199 197.452C280.52 199.488 303.331 203.377 317.849 208.346C320.03 207.573 321.99 206.776 323.705 205.966C326.719 204.531 328.839 203.132 330.162 201.844C331.485 200.544 331.767 199.611 331.767 199.022C331.767 198.433 331.485 197.501 330.162 196.201C328.839 194.912 326.719 193.514 323.705 192.078C320.777 190.704 317.177 189.367 312.963 188.091ZM101.051 208.346C115.569 203.377 138.38 199.488 165.701 197.451C141.272 195.636 120.456 192.336 105.938 188.09C101.723 189.366 98.1212 190.704 95.1931 192.078C92.1792 193.513 90.0598 194.912 88.7365 196.2C87.4134 197.5 87.1316 198.433 87.1316 199.022C87.1316 199.611 87.4134 200.543 88.7365 201.843C90.0597 203.132 92.1793 204.53 95.1931 205.966C96.9083 206.775 98.8704 207.573 101.051 208.346ZM106.16 210.015C110.583 208.702 115.667 207.463 121.352 206.322C143.809 201.819 174.952 199.022 209.452 199.022C243.952 199.022 275.096 201.819 297.553 206.322C303.237 207.463 308.322 208.702 312.745 210.015C308.322 211.327 303.238 212.566 297.553 213.707C275.096 218.21 243.952 221.007 209.452 221.007C174.952 221.007 143.808 218.21 121.352 213.707C115.667 212.566 110.583 211.327 106.16 210.015ZM317.852 211.683C303.334 216.652 280.523 220.541 253.202 222.578C277.632 224.393 298.447 227.694 312.965 231.939C317.18 230.663 320.782 229.325 323.71 227.951C326.724 226.516 328.843 225.117 330.167 223.829C331.49 222.529 331.772 221.596 331.772 221.008C331.772 220.419 331.49 219.486 330.167 218.186C328.843 216.898 326.724 215.499 323.71 214.064C321.995 213.254 320.033 212.456 317.852 211.683ZM165.701 222.578C141.271 224.393 120.456 227.694 105.937 231.939C101.723 230.663 98.1208 229.325 95.1927 227.951C92.1789 226.516 90.0595 225.117 88.7362 223.829C87.4131 222.529 87.1313 221.596 87.1313 221.008C87.1313 220.419 87.4131 219.486 88.7362 218.186C90.0594 216.898 92.179 215.499 95.1927 214.064C96.908 213.254 98.8682 212.456 101.049 211.683C115.567 216.652 138.38 220.541 165.701 222.578ZM297.55 231.448C300.907 232.123 304.068 232.834 306.996 233.57C304.068 234.306 300.907 235.018 297.55 235.693C275.093 240.195 243.95 242.992 209.45 242.992C174.95 242.992 143.806 240.195 121.349 235.693C117.993 235.018 114.832 234.306 111.904 233.57C114.832 232.834 117.993 232.123 121.349 231.448C143.806 226.945 174.95 224.148 209.45 224.148C243.95 224.148 275.094 226.945 297.55 231.448ZM312.963 235.202C298.445 239.447 277.628 242.747 253.199 244.563C280.52 246.599 303.331 250.489 317.849 255.457C320.03 254.685 321.99 253.887 323.705 253.077C326.719 251.642 328.839 250.243 330.162 248.955C331.485 247.655 331.767 246.722 331.767 246.133C331.767 245.545 331.485 244.612 330.162 243.312C328.839 242.023 326.719 240.625 323.705 239.189C320.777 237.815 317.177 236.478 312.963 235.202ZM101.051 255.457C115.569 250.489 138.38 246.599 165.701 244.563C141.272 242.747 120.456 239.447 105.938 235.202C101.723 236.478 98.1212 237.815 95.1931 239.189C92.1792 240.624 90.0598 242.023 88.7365 243.311C87.4134 244.611 87.1316 245.544 87.1316 246.133C87.1316 246.722 87.4134 247.654 88.7365 248.955C90.0597 250.243 92.1793 251.641 95.1931 253.077C96.9083 253.886 98.8704 254.684 101.051 255.457ZM106.16 257.126C110.583 255.813 115.667 254.574 121.352 253.433C143.809 248.93 174.952 246.133 209.452 246.133C243.952 246.133 275.096 248.93 297.553 253.433C303.237 254.574 308.322 255.813 312.745 257.126C308.322 258.438 303.238 259.678 297.553 260.819C275.096 265.321 243.952 268.118 209.452 268.118C174.952 268.118 143.808 265.321 121.352 260.819C115.667 259.678 110.583 258.438 106.16 257.126ZM317.852 258.794C303.334 263.763 280.523 267.652 253.202 269.689C277.632 271.505 298.447 274.805 312.965 279.05C317.18 277.774 320.782 276.437 323.71 275.063C326.724 273.627 328.843 272.229 330.167 270.94C331.49 269.64 331.772 268.708 331.772 268.119C331.772 267.53 331.49 266.597 330.167 265.297C328.843 264.009 326.724 262.61 323.71 261.175C321.995 260.365 320.033 259.567 317.852 258.794ZM165.701 269.689C141.271 271.505 120.456 274.805 105.937 279.05C101.723 277.774 98.1208 276.437 95.1927 275.063C92.1789 273.627 90.0595 272.229 88.7362 270.94C87.4131 269.64 87.1313 268.708 87.1313 268.119C87.1313 267.53 87.4131 266.597 88.7362 265.297C90.0594 264.009 92.179 262.61 95.1927 261.175C96.908 260.365 98.8682 259.567 101.049 258.795C115.567 263.763 138.38 267.652 165.701 269.689ZM297.55 278.559C300.907 279.234 304.068 279.945 306.996 280.681C304.068 281.417 300.907 282.129 297.55 282.804C275.093 287.306 243.95 290.103 209.45 290.103C174.95 290.103 143.806 287.306 121.349 282.804C117.993 282.129 114.832 281.417 111.904 280.681C114.832 279.945 117.993 279.234 121.349 278.559C143.806 274.056 174.95 271.259 209.45 271.259C243.95 271.259 275.094 274.056 297.55 278.559ZM312.963 282.313C298.445 286.558 277.628 289.858 253.199 291.674C280.52 293.711 303.331 297.6 317.849 302.569C320.03 301.796 321.99 300.998 323.705 300.189C326.719 298.753 328.839 297.354 330.162 296.066C331.485 294.766 331.767 293.833 331.767 293.245C331.767 292.656 331.485 291.723 330.162 290.423C328.839 289.135 326.719 287.736 323.705 286.301C320.777 284.926 317.177 283.589 312.963 282.313ZM101.051 302.568C115.569 297.6 138.38 293.71 165.701 291.674C141.272 289.858 120.456 286.558 105.938 282.313C101.723 283.589 98.1212 284.926 95.1931 286.3C92.1792 287.735 90.0598 289.134 88.7365 290.422C87.4134 291.723 87.1316 292.655 87.1316 293.244C87.1316 293.833 87.4134 294.765 88.7365 296.066C90.0597 297.354 92.1793 298.752 95.1931 300.188C96.9083 300.998 98.8704 301.795 101.051 302.568ZM106.16 304.237C110.583 302.924 115.667 301.685 121.352 300.544C143.809 296.041 174.952 293.244 209.452 293.244C243.952 293.244 275.096 296.041 297.553 300.544C303.237 301.685 308.322 302.924 312.745 304.237C308.322 305.55 303.238 306.789 297.553 307.93C275.096 312.432 243.952 315.229 209.452 315.229C174.952 315.229 143.808 312.432 121.352 307.93C115.667 306.789 110.583 305.55 106.16 304.237ZM317.852 305.905C320.033 306.678 321.993 307.476 323.708 308.285C326.722 309.721 328.841 311.119 330.165 312.408C331.488 313.708 331.77 314.641 331.77 315.229C331.77 315.818 331.488 316.751 330.165 318.051C328.842 319.339 326.722 320.738 323.708 322.173C317.693 325.02 308.798 327.67 297.552 329.915C275.095 334.417 243.951 337.214 209.451 337.214C174.951 337.214 143.807 334.417 121.351 329.915C110.104 327.67 101.209 325.02 95.194 322.173C92.1801 320.738 90.0607 319.339 88.7375 318.051C87.4143 316.751 87.1325 315.818 87.1325 315.229C87.1325 314.641 87.4143 313.708 88.7375 312.408C90.0606 311.119 92.1803 309.721 95.194 308.285C96.9092 307.476 98.8695 306.678 101.05 305.905C122.809 313.365 163.2 318.37 209.449 318.37C255.698 318.37 296.091 313.365 317.848 305.905H317.852Z" fill="#334365"/>
</g>
<defs>
<clipPath id="clip0_46_64">
<rect width="251" height="260" fill="white" transform="translate(84 80)"/>
</clipPath>
</defs>
</svg>
