<svg width="420" height="420" viewBox="0 0 420 420" fill="none" xmlns="http://www.w3.org/2000/svg">
<g clip-path="url(#clip0_46_60)">
<path d="M211.035 248.552C231.616 248.552 248.301 231.846 248.301 211.237C248.301 190.628 231.616 173.921 211.035 173.921C190.454 173.921 173.77 190.628 173.77 211.237C173.77 231.846 190.454 248.552 211.035 248.552Z" fill="#334365"/>
<path d="M359 172.884C359 111.194 308.873 61 247.266 61C234.216 61 221.669 63.2616 210 67.4077C198.331 63.2616 185.815 61 172.734 61C111.127 61 61 111.194 61 172.884C61 185.951 63.2585 198.515 67.3992 210.2C63.2585 221.885 61 234.418 61 247.516C61 309.206 111.127 359.4 172.734 359.4C185.784 359.4 198.331 357.138 210 352.992C221.669 357.138 234.185 359.4 247.266 359.4C308.873 359.4 359 309.206 359 247.516C359 234.449 356.741 221.885 352.601 210.2C356.741 198.515 359 185.982 359 172.884ZM247.266 63.0417C307.744 63.0417 356.961 112.325 356.961 172.884C356.961 184.852 355.016 196.348 351.472 207.153C339.112 175.271 312.606 150.426 279.701 140.406C269.694 107.456 244.882 80.9143 213.043 68.5385C223.802 64.9891 235.314 63.0417 247.266 63.0417ZM213.043 143.139C223.802 139.589 235.314 137.642 247.266 137.642C257.962 137.642 268.283 139.212 278.038 142.071C280.893 151.839 282.461 162.173 282.461 172.884C282.461 184.852 280.516 196.348 276.972 207.153C265.616 177.847 242.309 154.509 213.043 143.139ZM275.936 210.2C264.863 240.825 240.584 265.137 210 276.225C179.416 265.137 155.137 240.825 144.064 210.2C155.137 179.575 179.416 155.263 210 144.175C240.584 155.263 264.863 179.575 275.936 210.2ZM247.266 135.6C234.216 135.6 221.669 137.862 210 142.008C198.331 137.862 185.815 135.6 172.734 135.6C162.32 135.6 152.219 137.076 142.652 139.746C152.972 107.205 178.036 81.1656 210 69.5751C241.933 81.1656 267.028 107.173 277.348 139.746C267.781 137.076 257.68 135.6 247.266 135.6ZM172.766 137.642C184.717 137.642 196.198 139.589 206.989 143.139C177.722 154.509 154.415 177.847 143.06 207.153C139.515 196.379 137.57 184.852 137.57 172.884C137.57 162.173 139.139 151.839 141.993 142.071C151.749 139.212 162.069 137.642 172.766 137.642ZM135.5 172.884C135.5 185.951 137.759 198.515 141.899 210.2C137.759 221.885 135.5 234.418 135.5 247.516C135.5 257.944 136.974 268.058 139.641 277.638C107.143 267.304 81.1385 242.207 69.5636 210.2C81.1385 178.224 107.112 153.096 139.641 142.762C136.974 152.342 135.5 162.456 135.5 172.884ZM137.539 247.484C137.539 235.517 139.484 224.021 143.028 213.215C154.384 242.521 177.691 265.859 206.957 277.23C196.198 280.779 184.686 282.727 172.734 282.727C162.038 282.727 151.717 281.156 141.962 278.298C139.107 268.529 137.539 258.195 137.539 247.484ZM172.734 284.8C185.784 284.8 198.331 282.538 210 278.392C221.669 282.538 234.185 284.8 247.266 284.8C257.68 284.8 267.781 283.324 277.348 280.654C267.028 313.195 241.964 339.234 210 350.825C178.067 339.234 152.972 313.227 142.652 280.654C152.219 283.324 162.32 284.8 172.734 284.8ZM247.234 282.758C235.283 282.758 223.802 280.811 213.011 277.261C242.278 265.891 265.585 242.553 276.94 213.247C280.485 224.021 282.43 235.548 282.43 247.516C282.43 258.227 280.861 268.561 278.007 278.329C268.251 281.188 257.931 282.758 247.234 282.758ZM284.5 247.516C284.5 234.449 282.241 221.885 278.101 210.2C282.241 198.515 284.5 185.982 284.5 172.884C284.5 162.456 283.026 152.342 280.359 142.762C312.857 153.096 338.861 178.193 350.436 210.2C338.861 242.176 312.888 267.304 280.359 277.638C283.026 268.058 284.5 257.944 284.5 247.516ZM63.0389 172.884C63.0389 112.325 112.256 63.0417 172.734 63.0417C184.686 63.0417 196.167 64.9891 206.957 68.5385C175.118 80.9143 150.306 107.456 140.299 140.406C107.394 150.426 80.8876 175.271 68.5284 207.153C64.9838 196.379 63.0389 184.852 63.0389 172.884ZM172.734 357.327C112.256 357.358 63.0389 308.075 63.0389 247.516C63.0389 235.548 64.9838 224.052 68.5284 213.247C80.8876 245.128 107.394 269.974 140.299 279.994C150.306 312.944 175.118 339.486 206.957 351.861C196.198 355.411 184.686 357.358 172.734 357.358V357.327ZM356.93 247.484C356.93 308.044 307.713 357.327 247.234 357.327C235.283 357.327 223.802 355.379 213.011 351.83C244.85 339.454 269.663 312.912 279.669 279.963C312.575 269.943 339.081 245.097 351.44 213.215C354.985 223.989 356.93 235.517 356.93 247.484Z" fill="#334365"/>
</g>
<defs>
<clipPath id="clip0_46_60">
<rect width="298" height="298" fill="white" transform="translate(61 61)"/>
</clipPath>
</defs>
</svg>
