<svg width="420" height="420" viewBox="0 0 420 420" fill="none" xmlns="http://www.w3.org/2000/svg">
<g clip-path="url(#clip0_47_89)">
<path d="M69 349.632V350.605H117.494V349.632C117.494 299.28 158.759 258.321 209.516 258.321C260.272 258.321 301.538 299.28 301.538 349.632V350.605H350.031V349.632C350.031 272.739 287.018 210.2 209.516 210.2C132.014 210.2 69 272.739 69 349.632ZM209.516 212.179C285.572 212.179 347.486 273.304 348.02 348.658H303.518C302.983 297.679 261.027 256.342 209.516 256.342C158.005 256.342 116.048 297.647 115.514 348.658H70.98C71.5143 273.304 133.459 212.179 209.484 212.179H209.516Z" fill="#285FF4"/>
<path d="M350 70.7686V69.7949H301.506V70.7686C301.506 121.12 260.241 162.079 209.484 162.079C158.728 162.079 117.494 121.12 117.494 70.7686V69.7949H69V70.7686C69 147.662 132.014 210.2 209.516 210.2C287.018 210.2 350 147.662 350 70.7686ZM209.516 208.221C133.459 208.221 71.5143 147.096 70.98 71.7424H115.514C116.048 122.722 158.005 164.058 209.516 164.058C261.027 164.058 302.983 122.753 303.518 71.7424H348.02C347.486 147.096 285.541 208.221 209.516 208.221Z" fill="#285FF4"/>
<path d="M209.516 148.761C233.764 148.761 253.421 129.115 253.421 104.881C253.421 80.646 233.764 61 209.516 61C185.267 61 165.61 80.646 165.61 104.881C165.61 129.115 185.267 148.761 209.516 148.761Z" fill="#285FF4"/>
<path d="M209.516 359.4C233.764 359.4 253.421 339.754 253.421 315.519C253.421 291.285 233.764 271.639 209.516 271.639C185.267 271.639 165.61 291.285 165.61 315.519C165.61 339.754 185.267 359.4 209.516 359.4Z" fill="#285FF4"/>
</g>
<defs>
<clipPath id="clip0_47_89">
<rect width="281" height="298" fill="white" transform="translate(69 61)"/>
</clipPath>
</defs>
</svg>
