<svg width="420" height="420" viewBox="0 0 420 420" fill="none" xmlns="http://www.w3.org/2000/svg">
<g clip-path="url(#clip0_47_84)">
<path d="M210 240.04C226.458 240.04 239.8 226.681 239.8 210.2C239.8 193.72 226.458 180.36 210 180.36C193.542 180.36 180.2 193.72 180.2 210.2C180.2 226.681 193.542 240.04 210 240.04Z" fill="#285FF4"/>
<path d="M359 180.674V179.857C359 114.335 305.454 61 239.643 61H238.828V61.8167C238.828 66.8738 239.173 71.8366 239.8 76.7053C234.907 76.0771 229.919 75.7315 224.837 75.7315H224.022V76.5482C224.022 81.6053 224.367 86.5682 224.994 91.4368C220.352 90.8714 215.646 90.5259 210.847 90.4945H209.216C204.416 90.5259 199.711 90.8714 195.069 91.4368C195.696 86.5368 196.041 81.5739 196.041 76.5482V75.7315H195.225C190.144 75.7315 185.156 76.0771 180.263 76.7053C180.89 71.8052 181.235 66.8424 181.235 61.8167V61H180.42C114.546 61 61 114.335 61 179.857V180.674H61.8156C66.8973 180.674 71.8848 180.329 76.7783 179.7C76.1509 184.6 75.8059 189.563 75.8059 194.589V195.406H76.6215C81.7032 195.406 86.6907 195.06 91.5842 194.432C90.9568 199.332 90.6118 204.295 90.6118 209.321V210.954C90.6118 216.011 90.9568 220.974 91.5842 225.842C86.6907 225.214 81.7032 224.869 76.6215 224.869H75.8059V225.685C75.8059 230.742 76.1509 235.705 76.7783 240.574C71.8848 239.946 66.8973 239.6 61.8156 239.6H61V240.417C61 305.971 114.546 359.274 180.357 359.274H181.172V358.458C181.172 353.401 180.827 348.438 180.2 343.569C185.093 344.197 190.081 344.543 195.163 344.543H195.978V343.726C195.978 338.669 195.633 333.706 195.006 328.838C199.648 329.403 204.354 329.748 209.153 329.78H210.784C215.584 329.748 220.289 329.403 224.931 328.838C224.304 333.738 223.959 338.7 223.959 343.726V344.543H224.775C229.856 344.543 234.844 344.197 239.737 343.569C239.11 348.469 238.765 353.432 238.765 358.458V359.274H239.58C305.391 359.274 358.937 305.939 358.937 240.417V239.6H358.122C353.04 239.6 348.052 239.946 343.159 240.574C343.786 235.674 344.131 230.711 344.131 225.685V224.869H343.316C338.234 224.869 333.247 225.214 328.353 225.842C328.98 220.942 329.325 215.98 329.325 210.954V209.321C329.325 204.263 328.98 199.301 328.353 194.432C333.247 195.06 338.234 195.406 343.316 195.406H344.131V194.589C344.131 189.532 343.786 184.569 343.159 179.7C348.052 180.329 353.04 180.674 358.122 180.674H358.937H359ZM225.653 77.3963C230.515 77.4277 235.314 77.8046 240.02 78.4014C240.835 84.2124 242.09 89.8663 243.69 95.3631C238.169 93.7298 232.491 92.5048 226.657 91.6881C226.061 87.0079 225.684 82.2335 225.653 77.3963ZM246.168 97.8131C282.053 109.372 310.41 137.642 322.017 173.355C286.131 161.796 257.774 133.527 246.168 97.8131ZM322.644 175.303C324.369 180.894 325.655 186.674 326.502 192.579C275.089 185.197 234.311 144.583 226.908 93.3843C232.836 94.2323 238.639 95.5202 244.254 97.2163C255.923 134.344 285.378 163.681 322.644 175.303ZM245.572 95.8971C243.847 90.306 242.56 84.5265 241.713 78.6213C293.126 86.0028 333.905 126.617 341.308 177.816C335.38 176.968 329.576 175.68 323.961 173.984C312.292 136.856 282.837 107.519 245.572 95.8971ZM194.379 77.3963C194.347 82.2335 193.971 87.0079 193.375 91.6881C187.54 92.5048 181.863 93.7298 176.342 95.3631C177.973 89.8663 179.196 84.2124 180.012 78.4014C184.717 77.8046 189.516 77.4277 194.379 77.3963ZM173.864 97.8131C162.257 133.527 133.869 161.796 98.0147 173.355C109.621 137.642 138.009 109.372 173.864 97.8131ZM96.0385 173.984C90.4236 175.68 84.6204 176.968 78.6918 177.816C86.1261 126.617 126.874 86.0342 178.318 78.6213C177.471 84.5265 176.153 90.306 174.46 95.8971C137.194 107.488 107.708 136.856 96.0699 173.984H96.0385ZM175.777 97.2163C181.392 95.5202 187.195 94.2323 193.124 93.3843C185.689 144.583 144.942 185.166 93.5291 192.579C94.376 186.674 95.6935 180.894 97.3874 175.303C134.653 163.712 164.139 134.344 175.777 97.2163ZM62.6625 179.041C63.1017 115.058 115.299 63.0731 179.541 62.6333C179.51 67.4706 179.133 72.245 178.537 76.9251C126.027 84.2752 84.3695 125.737 76.9979 178.036C72.2926 178.632 67.4933 179.009 62.6312 179.041H62.6625ZM77.4684 193.804C77.4998 188.966 77.8762 184.192 78.4722 179.512C84.3067 178.695 89.9844 177.47 95.5053 175.837C93.8741 181.334 92.6507 186.988 91.8352 192.799C87.1299 193.395 82.3305 193.772 77.4684 193.804ZM194.818 93.1644C199.523 92.5676 204.322 92.1907 209.184 92.1592C208.745 156.142 156.548 208.127 92.3057 208.567C92.3371 203.729 92.7135 198.955 93.3095 194.275C145.82 186.925 187.477 145.463 194.849 93.1644H194.818ZM77.4684 226.596C82.3305 226.628 87.1299 227.005 91.8352 227.601C92.6507 233.412 93.9055 239.066 95.5053 244.563C89.9844 242.93 84.3067 241.705 78.4722 240.888C77.8762 236.208 77.4998 231.434 77.4684 226.596ZM97.9834 247.013C133.869 258.572 162.226 286.842 173.832 322.555C137.947 310.996 109.59 282.727 97.9834 247.013ZM174.46 324.503C176.185 330.094 177.471 335.874 178.318 341.779C126.905 334.397 86.1261 293.783 78.7232 242.584C84.6518 243.432 90.4549 244.72 96.0699 246.416C107.739 283.544 137.194 312.881 174.46 324.503ZM97.3874 245.097C95.6621 239.506 94.376 233.726 93.5291 227.821C144.942 235.203 185.721 275.817 193.124 327.016C187.195 326.168 181.392 324.88 175.777 323.184C164.108 286.056 134.653 256.719 97.3874 245.097ZM179.541 357.767C115.299 357.327 63.1017 305.342 62.6625 241.359C67.5246 241.391 72.324 241.768 77.0293 242.364C84.4008 294.663 126.027 336.125 178.569 343.475C179.165 348.155 179.541 352.929 179.573 357.767H179.541ZM194.347 343.004C189.485 342.972 184.686 342.595 179.98 341.999C179.165 336.188 177.91 330.534 176.31 325.037C181.831 326.67 187.509 327.895 193.343 328.712C193.939 333.392 194.316 338.166 194.347 343.004ZM194.818 327.236C187.446 274.937 145.82 233.475 93.2781 226.125C92.6821 221.445 92.3057 216.671 92.2743 211.833C156.517 212.273 208.714 264.258 209.153 328.241C204.291 328.209 199.492 327.832 194.786 327.236H194.818ZM225.653 343.004C225.684 338.166 226.061 333.392 226.657 328.712C232.491 327.895 238.169 326.67 243.69 325.037C242.059 330.534 240.835 336.188 240.02 341.999C235.314 342.595 230.515 342.972 225.653 343.004ZM246.168 322.587C257.774 286.873 286.163 258.604 322.017 247.045C310.41 282.758 282.022 311.028 246.168 322.587ZM323.961 246.448C329.576 244.752 335.38 243.464 341.308 242.616C333.874 293.815 293.126 334.397 241.713 341.81C242.56 335.905 243.878 330.125 245.572 324.534C282.837 312.944 312.324 283.575 323.961 246.448ZM244.223 323.184C238.608 324.88 232.805 326.168 226.876 327.016C234.311 275.817 275.058 235.234 326.471 227.821C325.624 233.726 324.307 239.506 322.613 245.097C285.347 256.688 255.861 286.056 244.223 323.184ZM357.337 241.359C356.898 305.342 304.701 357.327 240.459 357.767C240.49 352.929 240.867 348.155 241.463 343.475C293.973 336.125 335.631 294.663 343.002 242.364C347.707 241.768 352.507 241.391 357.369 241.359H357.337ZM342.532 226.596C342.5 231.434 342.124 236.208 341.528 240.888C335.693 241.705 330.016 242.93 324.495 244.563C326.126 239.066 327.349 233.412 328.165 227.601C332.87 227.005 337.669 226.628 342.532 226.596ZM225.182 327.236C220.477 327.832 215.678 328.209 210.816 328.241C211.255 264.258 263.452 212.273 327.694 211.833C327.663 216.671 327.287 221.445 326.691 226.125C274.18 233.475 232.523 274.937 225.151 327.236H225.182ZM210 315.331C203.13 256.248 152.596 210.2 91.4587 210.2C152.596 210.2 203.13 164.152 210 105.069C216.87 164.152 267.404 210.2 328.541 210.2C267.404 210.2 216.87 256.248 210 315.331ZM327.726 208.567C263.483 208.127 211.286 156.142 210.847 92.1592C215.709 92.1907 220.508 92.5676 225.214 93.1644C232.585 145.463 274.211 186.925 326.753 194.275C327.349 198.955 327.726 203.729 327.757 208.567H327.726ZM342.532 193.804C337.669 193.772 332.87 193.395 328.165 192.799C327.349 186.988 326.095 181.334 324.495 175.837C330.016 177.47 335.693 178.695 341.528 179.512C342.124 184.192 342.5 188.966 342.532 193.804ZM343.002 178.036C335.631 125.737 294.005 84.2752 241.463 76.9251C240.867 72.245 240.49 67.4706 240.459 62.6333C304.701 63.0731 356.898 115.058 357.337 179.041C352.475 179.009 347.676 178.632 342.971 178.036H343.002Z" fill="#285FF4"/>
</g>
<defs>
<clipPath id="clip0_47_84">
<rect width="298" height="298" fill="white" transform="translate(61 61)"/>
</clipPath>
</defs>
</svg>
